<?xml version="1.0" standalone="no"?>
<!DOCTYPE svg PUBLIC "-//W3C//DTD SVG 20010904//EN"
 "http://www.w3.org/TR/2001/REC-SVG-20010904/DTD/svg10.dtd">
<svg version="1.0" xmlns="http://www.w3.org/2000/svg"
 width="1096.000000pt" height="1096.000000pt" viewBox="0 0 1096.000000 1096.000000"
 preserveAspectRatio="xMidYMid meet">
<metadata>
Created by potrace 1.14, written by Peter Selinger 2001-2017
</metadata>
<g transform="translate(0.000000,1096.000000) scale(0.100000,-0.100000)"
fill="#000000" stroke="none">
<path d="M8563 10783 c-13 -3 -23 -9 -23 -15 0 -5 33 -43 73 -83 39 -40 80
-81 90 -91 33 -36 104 -99 131 -117 15 -10 38 -37 53 -60 14 -23 60 -79 102
-125 42 -46 92 -105 111 -131 19 -27 56 -73 81 -102 25 -30 58 -75 73 -100 23
-41 70 -90 194 -201 23 -21 50 -55 61 -75 10 -21 33 -51 50 -67 17 -17 31 -39
31 -51 0 -26 12 -41 73 -89 26 -21 54 -50 61 -65 8 -15 37 -39 64 -54 27 -15
61 -45 77 -67 15 -22 42 -49 60 -60 18 -11 43 -41 57 -67 47 -90 61 -109 98
-136 20 -16 72 -65 116 -110 43 -44 114 -116 157 -159 43 -43 85 -95 94 -116
8 -20 30 -52 48 -69 19 -18 48 -61 65 -97 17 -35 43 -73 56 -85 13 -11 24 -26
24 -33 0 -6 8 -21 18 -32 11 -12 27 -41 36 -65 10 -25 28 -57 40 -72 36 -42
96 -155 96 -178 0 -12 11 -48 25 -81 22 -53 25 -73 24 -187 0 -197 -14 -342
-35 -385 -21 -46 -48 -49 -62 -10 -5 16 -41 61 -80 100 -52 54 -72 83 -80 115
-6 24 -21 52 -33 63 -12 10 -40 43 -61 72 -22 30 -56 63 -75 74 -19 12 -44 35
-56 53 -12 17 -44 64 -70 103 -26 39 -63 84 -83 98 -19 15 -51 51 -71 81 -19
29 -50 66 -68 81 -18 15 -46 47 -63 72 -17 25 -47 63 -68 84 -21 21 -56 64
-79 95 -23 31 -76 93 -119 138 -42 45 -104 117 -137 160 -33 43 -76 89 -97
103 -20 14 -50 45 -65 69 -16 23 -51 59 -78 79 -27 20 -51 43 -54 52 -3 9 -55
61 -116 115 -60 54 -124 119 -141 144 -53 78 -78 105 -128 136 -78 49 -188
155 -236 228 -53 79 -174 205 -297 306 -49 40 -105 95 -125 123 -20 27 -70 83
-109 124 -40 42 -73 80 -73 86 0 5 -21 31 -47 58 -124 125 -171 177 -177 197
-4 12 -16 25 -27 28 -11 4 -31 24 -44 45 -44 70 -66 80 -170 80 -51 0 -129 -7
-172 -15 -43 -9 -118 -20 -167 -25 -49 -5 -118 -16 -155 -24 -36 -8 -111 -24
-166 -36 -55 -11 -122 -27 -150 -35 -58 -17 -216 -53 -294 -66 -29 -5 -65 -16
-80 -23 -15 -8 -49 -19 -76 -25 -28 -6 -84 -20 -125 -32 -41 -12 -104 -29
-140 -39 -36 -9 -75 -22 -85 -27 -11 -6 -38 -14 -60 -18 -21 -3 -69 -20 -105
-36 -36 -17 -85 -34 -110 -40 -25 -5 -67 -18 -95 -28 -27 -10 -77 -28 -110
-39 -71 -24 -191 -73 -260 -107 -27 -13 -104 -47 -170 -76 -66 -29 -163 -75
-215 -104 -52 -28 -115 -62 -140 -74 -54 -27 -79 -41 -195 -107 -263 -150
-299 -172 -428 -259 -41 -27 -94 -62 -118 -77 -24 -16 -78 -52 -119 -80 -42
-29 -113 -77 -158 -106 -46 -29 -99 -67 -120 -85 -60 -54 -205 -163 -237 -180
-16 -9 -44 -28 -60 -44 -17 -15 -64 -57 -105 -93 -161 -139 -267 -236 -313
-285 -27 -27 -110 -113 -185 -190 -75 -77 -164 -171 -197 -209 -70 -81 -134
-153 -155 -175 -8 -9 -31 -37 -50 -61 -19 -25 -44 -56 -56 -70 -65 -74 -189
-227 -226 -281 -24 -33 -52 -74 -63 -89 -11 -16 -39 -51 -63 -77 -45 -50 -57
-68 -196 -273 -47 -69 -111 -163 -143 -210 -32 -47 -78 -119 -102 -160 -24
-41 -51 -86 -60 -100 -8 -14 -33 -61 -56 -105 -22 -44 -51 -96 -65 -115 -34
-47 -48 -69 -66 -105 -8 -16 -35 -66 -59 -110 -24 -44 -63 -118 -86 -165 -59
-120 -144 -290 -163 -325 -9 -16 -16 -36 -16 -43 0 -7 -9 -30 -19 -50 -31 -58
-87 -181 -116 -252 -14 -36 -32 -78 -39 -95 -24 -54 -57 -138 -102 -265 -25
-69 -59 -159 -76 -200 -17 -41 -34 -91 -38 -110 -7 -34 -14 -58 -85 -290 -18
-58 -45 -145 -60 -195 -14 -49 -33 -110 -41 -135 -39 -124 -80 -330 -70 -355
3 -8 15 -15 26 -15 43 0 147 -42 207 -83 35 -23 148 -100 253 -171 105 -70
205 -142 223 -158 30 -29 107 -85 186 -137 20 -13 54 -40 76 -61 22 -20 58
-47 80 -60 22 -13 62 -43 90 -67 27 -24 54 -43 59 -43 5 0 36 -24 70 -54 34
-29 89 -76 123 -103 96 -77 207 -186 328 -322 61 -69 165 -181 231 -250 111
-115 169 -181 338 -382 32 -39 69 -77 82 -86 13 -8 24 -21 24 -27 0 -7 46 -74
102 -149 57 -75 121 -162 143 -193 22 -31 45 -62 50 -68 6 -6 24 -33 39 -61
16 -27 36 -58 45 -68 8 -10 24 -34 36 -52 39 -66 168 -270 195 -310 15 -22 35
-57 44 -77 10 -20 29 -48 43 -62 31 -31 71 -95 102 -164 33 -70 23 -80 -95
-92 -49 -5 -114 -14 -144 -20 -30 -6 -102 -13 -160 -15 -58 -2 -129 -6 -158
-10 l-52 -8 -43 45 c-68 72 -114 132 -138 179 -12 24 -39 65 -58 91 -20 26
-54 72 -76 103 -55 77 -158 211 -205 266 -21 25 -49 62 -62 80 -13 19 -29 41
-36 49 -7 8 -26 37 -43 63 -17 26 -99 117 -183 201 -83 84 -181 184 -217 222
-37 38 -94 96 -128 129 -34 33 -98 101 -142 152 -98 113 -223 225 -289 258
-28 14 -50 29 -50 33 0 4 -24 26 -53 47 -95 72 -277 225 -277 234 0 5 -25 25
-55 45 -30 21 -59 45 -65 55 -13 26 -128 122 -244 206 -54 39 -111 81 -128 95
-66 53 -226 136 -238 124 -17 -19 -39 -154 -45 -279 -4 -71 -13 -155 -21 -186
-8 -33 -18 -165 -24 -330 -6 -151 -13 -294 -15 -319 -16 -145 -25 -696 -15
-860 19 -289 76 -420 230 -521 39 -25 101 -77 138 -116 71 -73 119 -101 242
-141 140 -45 215 -57 445 -72 94 -6 215 -15 270 -20 130 -12 1037 -12 1180 0
61 6 202 16 315 24 230 17 412 38 575 67 61 10 126 19 145 19 19 0 80 9 135
21 55 11 141 29 190 39 50 10 137 28 195 39 58 12 128 26 155 32 28 6 82 17
120 25 39 7 97 20 130 28 33 8 105 24 160 36 55 12 127 28 160 37 33 8 85 21
115 28 153 37 424 116 485 141 17 7 62 25 100 39 39 15 84 33 102 41 17 8 37
14 45 14 7 0 27 9 43 20 17 11 38 20 48 20 11 0 31 6 45 14 31 17 90 43 182
81 36 15 83 35 105 45 22 10 83 37 135 60 169 75 269 120 290 131 29 16 176
93 250 131 41 22 93 50 115 63 22 13 47 27 55 31 8 4 66 37 129 73 107 62 137
80 221 131 19 11 60 35 92 53 31 18 65 40 75 49 11 10 23 18 27 18 4 0 55 35
114 78 59 43 128 92 153 108 26 16 78 52 115 81 193 146 239 181 282 217 26
22 99 81 162 132 63 51 124 101 135 111 11 10 56 50 100 88 136 117 441 420
566 563 152 173 359 418 407 481 23 31 57 73 75 95 32 38 54 68 101 136 14 19
43 60 65 90 119 163 247 362 285 445 8 17 39 73 69 125 69 121 252 477 262
510 4 14 32 76 61 138 30 63 54 117 54 121 0 5 14 38 30 75 38 84 68 163 125
336 25 74 50 149 56 165 12 33 45 156 60 225 10 45 34 157 69 325 35 164 60
311 60 350 0 21 6 64 14 94 8 31 20 123 26 205 7 82 18 188 26 235 19 115 38
657 30 851 -10 264 -26 537 -41 720 -8 96 -17 209 -20 250 -3 41 -12 122 -20
180 -26 188 -47 353 -54 435 -4 44 -15 114 -25 155 -9 41 -26 113 -37 160 -11
47 -19 92 -19 101 0 16 -17 60 -61 159 -11 25 -24 52 -30 60 -5 8 -17 30 -26
48 -19 36 -98 92 -130 92 -24 0 -62 42 -115 128 -30 48 -48 64 -90 85 -119 57
-271 79 -688 97 -210 10 -987 11 -1037 3z m-1187 -1039 c21 -14 71 -52 109
-83 39 -31 88 -69 110 -84 38 -26 96 -73 281 -227 143 -120 278 -241 344 -310
36 -37 126 -123 200 -191 74 -67 140 -128 145 -135 6 -6 62 -57 125 -113 139
-122 218 -198 238 -229 15 -23 14 -25 -21 -57 -45 -41 -52 -68 -33 -122 12
-35 12 -43 1 -53 -10 -8 -26 -4 -69 20 -31 18 -56 35 -56 40 0 4 -45 54 -100
110 -56 57 -99 110 -98 119 2 8 13 18 26 21 22 5 20 8 -31 69 -55 65 -101 93
-149 93 -15 0 -43 10 -63 24 -44 30 -47 30 -82 0 -16 -14 -49 -32 -74 -42 -24
-9 -75 -40 -114 -67 -38 -28 -114 -83 -169 -121 -216 -155 -253 -185 -356
-283 -75 -71 -157 -137 -182 -146 -42 -15 -17 -49 188 -255 259 -259 294 -301
294 -351 0 -33 -4 -39 -35 -54 -43 -21 -45 -45 -5 -60 26 -10 30 -16 28 -42
-5 -55 -33 -44 -121 49 -45 47 -185 189 -311 316 -276 277 -260 271 -393 153
-32 -28 -94 -82 -138 -119 -44 -36 -136 -121 -205 -188 -69 -66 -179 -170
-245 -231 -207 -190 -275 -265 -275 -303 0 -20 38 -62 177 -196 97 -94 184
-180 192 -191 9 -10 32 -34 51 -53 19 -19 71 -70 116 -113 44 -44 87 -91 94
-104 13 -23 11 -28 -20 -60 -36 -38 -86 -65 -119 -65 -14 0 -90 68 -225 203
-395 392 -400 397 -434 397 -25 0 -46 -14 -98 -62 -135 -128 -526 -535 -641
-668 -12 -14 -61 -70 -108 -125 -98 -112 -118 -145 -110 -178 4 -13 93 -109
198 -213 298 -296 347 -350 347 -384 0 -16 5 -32 10 -35 19 -12 10 -35 -16
-45 -15 -6 -49 -7 -78 -4 -57 7 -57 7 -415 382 -97 102 -174 175 -189 179 -19
5 -30 0 -45 -18 -45 -56 -79 -94 -182 -201 -115 -119 -212 -225 -360 -393 -49
-55 -96 -107 -105 -115 -9 -8 -48 -53 -86 -100 -38 -47 -86 -103 -106 -125
-46 -48 -50 -86 -12 -112 45 -31 114 -107 114 -126 0 -10 8 -20 18 -24 18 -7
72 -62 72 -74 0 -14 117 -149 216 -247 57 -57 106 -113 110 -125 4 -12 15 -28
26 -35 26 -19 20 -56 -9 -60 -20 -3 -23 1 -23 27 0 26 -4 31 -24 31 -15 0 -32
-10 -43 -25 -18 -26 -19 -26 -58 -10 -26 11 -107 85 -249 229 -267 268 -343
339 -356 331 -6 -4 -16 -21 -24 -39 -7 -18 -29 -48 -48 -67 -19 -19 -97 -104
-174 -189 -138 -154 -256 -281 -304 -330 -14 -14 -68 -74 -120 -135 -52 -60
-112 -125 -133 -145 -55 -51 -80 -95 -69 -117 10 -18 247 -246 332 -319 137
-118 231 -210 236 -231 5 -17 0 -30 -20 -48 -19 -18 -25 -31 -21 -45 5 -15 2
-20 -12 -20 -45 0 -91 24 -138 70 -27 27 -115 109 -195 181 -80 72 -176 160
-214 195 -64 59 -89 73 -157 88 -14 3 -39 17 -55 32 -256 229 -302 281 -311
354 -5 34 -18 52 -87 118 -155 151 -202 198 -319 319 -64 67 -117 128 -117
135 1 22 59 108 73 108 8 0 65 -51 128 -112 101 -99 217 -208 419 -395 31 -29
61 -53 67 -53 6 0 22 15 36 33 14 17 48 57 77 87 28 30 63 71 78 90 14 19 36
44 48 55 19 17 137 147 249 275 16 19 48 55 70 80 23 25 79 90 125 145 46 55
112 130 147 167 35 36 63 74 63 84 0 10 -15 32 -34 49 -50 45 -231 212 -392
364 -79 73 -146 142 -150 154 -5 16 5 30 47 69 30 26 57 48 60 48 9 0 182
-145 249 -209 30 -29 67 -59 82 -67 15 -8 28 -19 28 -24 0 -5 9 -11 20 -15 11
-3 52 -38 92 -77 94 -90 145 -128 175 -128 27 0 104 75 270 261 56 63 125 139
155 171 29 31 62 67 73 80 61 74 131 151 194 216 39 41 71 77 71 80 0 4 25 34
56 67 65 70 88 109 80 139 -5 18 -267 277 -457 451 -36 33 -74 75 -84 92 l-19
33 30 42 c42 60 61 60 131 -5 32 -30 82 -74 111 -98 29 -24 96 -82 147 -129
145 -131 177 -157 216 -173 20 -8 40 -20 43 -26 4 -6 20 -11 35 -11 21 0 45
19 112 88 157 164 458 495 479 526 13 19 126 132 176 177 52 46 204 207 204
216 0 20 -387 392 -555 534 -105 87 -112 105 -64 155 41 42 67 43 110 3 46
-43 217 -194 282 -248 29 -24 102 -87 162 -141 126 -112 200 -170 218 -170 6
0 42 28 78 63 36 34 93 84 125 110 32 27 106 92 163 145 57 54 119 108 137
121 19 13 34 27 34 31 0 4 59 58 130 119 72 62 141 122 154 134 13 12 61 55
105 96 45 40 81 80 81 87 0 7 -15 30 -32 49 -70 78 -163 170 -173 171 -5 1
-17 2 -26 3 -9 0 -39 19 -67 42 -41 32 -52 48 -57 77 -9 58 -43 117 -86 148
-22 16 -53 40 -69 54 -16 14 -54 45 -84 70 -31 25 -56 53 -56 62 0 24 71 88
98 88 13 0 58 -31 115 -79 50 -43 115 -98 144 -122 92 -78 196 -169 268 -238
119 -112 185 -163 209 -163 15 0 72 38 152 104 71 57 145 114 164 128 19 13
42 31 51 39 8 9 56 49 105 88 231 187 287 233 375 306 52 44 98 88 104 99 8
17 -1 29 -60 84 -39 35 -75 63 -82 64 -6 0 -42 27 -80 60 -37 33 -75 60 -83
60 -8 0 -27 11 -41 24 -14 13 -34 28 -45 34 -11 6 -34 37 -50 70 -28 57 -128
159 -196 200 -35 21 -35 45 -2 71 36 28 73 26 120 -5z m-3036 -7018 c0 -2 -8
-10 -17 -17 -16 -13 -17 -12 -4 4 13 16 21 21 21 13z"/>
</g>
</svg>
